<svg width="644" height="385" viewBox="0 0 644 385" fill="none" xmlns="http://www.w3.org/2000/svg">
  <path d="M377.826 156.594C395.298 170.039 412.77 163.85 412.77 163.85C412.77 163.85 386.287 149.124 381.235 131.838C381.235 131.838 385.923 134.185 389.758 131.838C389.758 131.838 371.008 111.777 370.155 85.7401C369.303 59.7035 396.364 3.36199 389.758 0.160756C383.153 -3.04048 344.586 42.6303 344.586 42.6303L339.046 40.9229C339.046 40.9229 321.361 53.9413 321.148 83.6059C320.935 113.271 342.669 121.167 350.765 128.636C361.415 138.461 360.354 143.149 377.826 156.594Z" fill="#020202"/>
  <path d="M299.839 72.935C308.575 109.002 260.207 120.1 260.207 120.1C260.207 120.1 267.186 100.892 263.19 70.374C259.194 39.8557 234.638 3.36182 243.587 3.36182C252.536 3.36181 291.103 36.8679 299.839 72.935Z" fill="#020202"/>
  <path d="M345.012 43.4838C345.012 43.4838 335.53 40.0692 328.286 38.3619C321.041 36.6545 309.708 27.1798 310.92 32.5997C311.593 35.61 313.903 38.3619 313.903 38.3619L301.758 37.7216" stroke="black" stroke-width="2.06208" stroke-linecap="round"/>
  <ellipse cx="281.729" cy="80.0849" rx="9.16223" ry="12.9116" fill="white"/>
  <ellipse cx="339.045" cy="81.5781" rx="9.16223" ry="12.9116" fill="white"/>
  <path d="M316.567 159.847C316.567 159.847 312.625 149.551 270.862 148.27C247.847 147.565 236.997 140.507 231.895 134.313C228.159 129.778 232.164 124.442 237.988 123.664C250.806 121.95 271.903 117.945 281.835 109.429" stroke="black" stroke-width="2.06208" stroke-linecap="round"/>
  <ellipse rx="2.97662" ry="5.18189" transform="matrix(0.999617 0.0276762 -0.0275883 0.999619 282.09 86.3209)" fill="black"/>
  <ellipse rx="2.97662" ry="5.18189" transform="matrix(0.999617 0.0276762 -0.0275883 0.999619 338.967 87.8531)" fill="black"/>
  <path d="M254.669 146.35C253.817 163.85 218.446 185.618 210.775 232.996" stroke="black" stroke-width="2.06208"/>
  <path d="M381.661 146.35C382.513 163.85 417.458 187.592 425.768 220.778" stroke="black" stroke-width="2.06208"/>
  <path d="M254.668 146.35C253.815 163.85 218.445 185.618 210.774 232.996C210.774 232.996 204.701 266.342 232.721 278.506C260.74 290.671 347.355 264.623 365.254 265.275C383.152 265.927 415.965 281.921 419.588 275.732C423.21 269.543 414.261 266.342 414.261 266.342" stroke="black" stroke-width="2.06208" stroke-linecap="round"/>
  <path d="M214.61 218.964H221.748L236.343 208.506L234.426 183.857L227.394 185.031L214.61 197.195L209.709 213.842L214.61 218.964Z" fill="white"/>
  <path d="M252.111 155.313C252.111 155.313 279.811 180.496 319.443 181.35C359.075 182.203 384.644 159.154 384.644 159.154" stroke="black" stroke-width="2.06208"/>
  <path d="M247.85 169.398C268.006 175.801 308.834 213.362 308.834 213.362L320.721 181.35" stroke="black" stroke-width="2.06208" stroke-linecap="round"/>
  <path d="M394.02 169.398C373.864 175.801 333.035 213.362 333.035 213.362L321.148 181.35" stroke="black" stroke-width="2.06208" stroke-linecap="round"/>
  <path d="M240.177 123.301L252.109 121.807C252.109 121.807 252.109 127.142 244.439 130.344C236.768 133.545 236.768 138.88 236.768 138.88L229.523 131.411L230.589 127.142L233.146 124.582L240.177 123.301Z" fill="black"/>
  <path d="M232.189 202.21C232.189 202.21 221.748 200.183 217.593 203.064C213.438 205.945 214.717 209.466 214.717 209.466" stroke="black" stroke-width="2.06208" stroke-linecap="round"/>
  <path d="M284.709 279.467C284.709 279.467 313.474 296.22 350.123 295.473C386.772 294.726 412.341 276.906 412.341 276.906" stroke="black" stroke-width="2.06208"/>
  <path d="M418.201 255.457C418.201 255.457 429.281 259.832 427.577 266.234C425.872 272.637 416.816 267.622 416.816 267.622" stroke="black" stroke-width="2.06208" stroke-linecap="round"/>
  <path d="M422.063 243.494C421.526 243.304 420.937 243.585 420.747 244.122C420.557 244.659 420.838 245.248 421.374 245.438L422.063 243.494ZM421.719 244.466C421.374 245.438 421.374 245.438 421.374 245.438C421.374 245.438 421.374 245.438 421.374 245.438C421.374 245.438 421.374 245.438 421.375 245.438C421.376 245.439 421.378 245.439 421.38 245.44C421.385 245.442 421.394 245.445 421.405 245.449C421.429 245.458 421.464 245.471 421.512 245.489C421.606 245.524 421.747 245.578 421.927 245.65C422.286 245.793 422.8 246.007 423.409 246.287C424.632 246.849 426.218 247.667 427.71 248.702C429.213 249.744 430.551 250.959 431.353 252.291C432.132 253.587 432.395 254.967 431.832 256.486L433.765 257.203C434.587 254.987 434.157 252.953 433.119 251.228C432.103 249.538 430.498 248.125 428.885 247.007C427.26 245.881 425.558 245.005 424.27 244.413C423.624 244.116 423.077 243.888 422.69 243.734C422.497 243.657 422.342 243.598 422.236 243.558C422.182 243.538 422.14 243.522 422.111 243.512C422.097 243.507 422.085 243.502 422.077 243.5C422.073 243.498 422.07 243.497 422.068 243.496C422.067 243.496 422.066 243.495 422.065 243.495C422.064 243.495 422.064 243.495 422.064 243.495C422.063 243.495 422.063 243.494 421.719 244.466ZM431.832 256.486C430.497 260.086 429.114 260.723 428.433 260.81C428.05 260.859 427.706 260.767 427.441 260.647C427.31 260.588 427.208 260.526 427.142 260.481C427.109 260.459 427.086 260.443 427.075 260.434C427.069 260.429 427.066 260.427 427.066 260.427C427.066 260.427 427.067 260.428 427.069 260.429C427.07 260.43 427.071 260.431 427.072 260.432C427.073 260.432 427.073 260.433 427.074 260.434C427.074 260.434 427.075 260.434 427.075 260.434C427.076 260.435 427.076 260.435 426.406 261.219C425.737 262.003 425.737 262.004 425.738 262.004C425.738 262.005 425.739 262.005 425.739 262.005C425.74 262.006 425.741 262.007 425.742 262.008C425.744 262.01 425.747 262.012 425.749 262.014C425.754 262.018 425.76 262.023 425.767 262.029C425.781 262.04 425.799 262.054 425.821 262.071C425.864 262.104 425.922 262.146 425.993 262.194C426.136 262.29 426.338 262.411 426.59 262.525C427.091 262.752 427.826 262.967 428.695 262.856C430.517 262.623 432.331 261.072 433.765 257.203L431.832 256.486Z" fill="black"/>
  <path d="M424.168 233.049C424.168 233.049 436.739 239.238 436.739 246.281C436.739 253.323 432.371 251.936 432.371 251.936" stroke="black" stroke-width="2.06208" stroke-linecap="round"/>
  <path d="M229.852 210.904C230.41 211.017 230.954 210.656 231.067 210.098C231.18 209.54 230.819 208.996 230.261 208.883L229.852 210.904ZM228.032 221.098L228.548 220.205L228.308 220.067H228.032V221.098ZM432.372 235.61L431.746 234.791L432.372 235.61ZM230.057 209.894C230.261 208.883 230.261 208.883 230.261 208.883C230.261 208.883 230.26 208.883 230.26 208.883C230.259 208.883 230.258 208.882 230.256 208.882C230.254 208.882 230.25 208.881 230.245 208.88C230.235 208.878 230.221 208.875 230.202 208.871C230.165 208.864 230.111 208.854 230.041 208.84C229.901 208.814 229.697 208.777 229.439 208.732C228.922 208.642 228.186 208.524 227.3 208.405C225.534 208.168 223.154 207.929 220.735 207.929C218.335 207.929 215.803 208.163 213.781 208.93C211.737 209.704 210.023 211.112 209.749 213.512L211.798 213.745C211.95 212.41 212.859 211.484 214.511 210.858C216.184 210.224 218.42 209.991 220.735 209.991C223.03 209.991 225.311 210.219 227.026 210.449C227.882 210.563 228.592 210.678 229.087 210.764C229.334 210.807 229.528 210.842 229.658 210.867C229.723 210.879 229.773 210.889 229.805 210.895C229.822 210.898 229.834 210.901 229.842 210.902C229.846 210.903 229.848 210.903 229.85 210.904C229.851 210.904 229.852 210.904 229.852 210.904C229.852 210.904 229.852 210.904 229.852 210.904C229.852 210.904 229.852 210.904 230.057 209.894ZM209.749 213.512C209.477 215.896 210.768 217.626 212.539 218.805C214.28 219.964 216.616 220.697 218.87 221.173C221.144 221.653 223.433 221.891 225.145 222.01C226.002 222.069 226.72 222.099 227.225 222.114C227.478 222.121 227.678 222.125 227.815 222.127C227.884 222.128 227.937 222.128 227.974 222.129C227.992 222.129 228.006 222.129 228.016 222.129C228.021 222.129 228.025 222.129 228.027 222.129C228.029 222.129 228.03 222.129 228.031 222.129C228.031 222.129 228.032 222.129 228.032 222.129C228.032 222.129 228.032 222.129 228.032 221.098C228.032 220.067 228.033 220.067 228.033 220.067C228.033 220.067 228.033 220.067 228.032 220.067C228.032 220.067 228.032 220.067 228.031 220.067C228.029 220.067 228.026 220.067 228.023 220.067C228.015 220.067 228.003 220.067 227.987 220.067C227.955 220.066 227.907 220.066 227.843 220.065C227.716 220.063 227.527 220.06 227.286 220.053C226.804 220.038 226.114 220.01 225.287 219.953C223.629 219.838 221.443 219.609 219.296 219.155C217.129 218.698 215.097 218.03 213.682 217.088C212.297 216.167 211.644 215.096 211.798 213.745L209.749 213.512ZM228.032 221.098C227.517 221.991 227.518 221.991 227.518 221.992C227.519 221.992 227.519 221.992 227.52 221.993C227.522 221.994 227.524 221.995 227.527 221.997C227.533 222 227.541 222.004 227.551 222.01C227.572 222.022 227.603 222.04 227.643 222.062C227.723 222.107 227.841 222.173 227.996 222.258C228.306 222.427 228.765 222.674 229.367 222.984C230.57 223.604 232.343 224.48 234.635 225.509C239.219 227.566 245.881 230.236 254.215 232.7C270.879 237.628 294.25 241.736 321.059 238.448L320.808 236.401C294.348 239.647 271.268 235.592 254.799 230.723C246.566 228.289 239.991 225.652 235.479 223.627C233.224 222.615 231.484 221.755 230.312 221.151C229.726 220.849 229.281 220.61 228.985 220.448C228.837 220.367 228.726 220.306 228.653 220.264C228.616 220.244 228.589 220.229 228.572 220.219C228.563 220.214 228.556 220.21 228.552 220.208C228.55 220.206 228.549 220.206 228.548 220.205C228.548 220.205 228.548 220.205 228.547 220.205C228.547 220.205 228.548 220.205 228.032 221.098ZM321.059 238.448C347.784 235.169 367.564 229.251 383.014 224.746C390.749 222.49 397.353 220.602 403.214 219.558C409.069 218.516 414.106 218.332 418.708 219.433L419.188 217.427C414.201 216.234 408.851 216.46 402.853 217.528C396.862 218.595 390.149 220.517 382.436 222.766C366.99 227.271 347.351 233.144 320.808 236.401L321.059 238.448ZM418.708 219.433C428.132 221.688 431.645 225.406 432.718 228.444C433.261 229.983 433.216 231.436 432.916 232.593C432.606 233.793 432.058 234.552 431.746 234.791L432.997 236.43C433.803 235.814 434.534 234.573 434.913 233.109C435.303 231.601 435.357 229.726 434.662 227.757C433.258 223.779 428.941 219.761 419.188 217.427L418.708 219.433ZM431.746 234.791C431.082 235.297 430.329 235.255 429.591 234.982C429.227 234.848 428.908 234.669 428.676 234.52C428.562 234.447 428.474 234.383 428.416 234.34C428.387 234.319 428.366 234.302 428.354 234.293C428.348 234.288 428.345 234.285 428.343 234.284C428.342 234.283 428.342 234.283 428.342 234.283C428.343 234.284 428.343 234.284 428.344 234.284C428.344 234.284 428.344 234.285 428.344 234.285C428.345 234.285 428.345 234.285 428.345 234.285C428.345 234.286 428.345 234.286 427.684 235.077C427.022 235.867 427.023 235.868 427.023 235.868C427.023 235.868 427.023 235.868 427.024 235.869C427.024 235.869 427.025 235.869 427.025 235.87C427.026 235.871 427.028 235.872 427.029 235.873C427.032 235.875 427.035 235.878 427.04 235.882C427.048 235.889 427.059 235.897 427.072 235.908C427.099 235.929 427.135 235.957 427.181 235.992C427.272 236.06 427.401 236.151 427.561 236.254C427.877 236.458 428.333 236.716 428.876 236.917C429.952 237.315 431.543 237.539 432.997 236.43L431.746 234.791Z" fill="black"/>
  <path d="M225.582 193.247C225.582 193.247 224.197 191.86 224.197 188.979C224.197 184.604 237.301 180.122 249.553 188.979C261.805 197.835 279.703 232.836 301.757 238.704" stroke="black" stroke-width="2.06208"/>
  <path d="M235.169 193.952C235.736 194.012 236.243 193.601 236.303 193.035C236.362 192.469 235.952 191.961 235.386 191.901L235.169 193.952ZM235.277 192.927C235.386 191.901 235.385 191.901 235.385 191.901C235.385 191.901 235.385 191.901 235.384 191.901C235.384 191.901 235.383 191.901 235.382 191.901C235.381 191.901 235.378 191.901 235.375 191.9C235.369 191.9 235.361 191.899 235.351 191.898C235.329 191.896 235.299 191.893 235.259 191.889C235.18 191.882 235.064 191.871 234.917 191.859C234.622 191.835 234.199 191.805 233.678 191.779C232.638 191.726 231.201 191.688 229.618 191.75C228.037 191.811 226.29 191.972 224.636 192.323C222.993 192.672 221.372 193.223 220.095 194.106L221.268 195.802C222.228 195.138 223.551 194.662 225.064 194.341C226.566 194.022 228.188 193.869 229.698 193.81C231.204 193.752 232.577 193.788 233.574 193.838C234.072 193.863 234.474 193.892 234.751 193.915C234.889 193.926 234.995 193.935 235.066 193.942C235.102 193.945 235.129 193.948 235.146 193.95C235.155 193.951 235.161 193.951 235.165 193.952C235.167 193.952 235.168 193.952 235.169 193.952C235.169 193.952 235.169 193.952 235.17 193.952C235.17 193.952 235.17 193.952 235.17 193.952C235.169 193.952 235.169 193.952 235.277 192.927ZM220.095 194.106C217.534 195.877 216.876 198.147 216.908 199.974C216.923 200.864 217.1 201.635 217.271 202.18C217.357 202.454 217.442 202.676 217.509 202.834C217.542 202.913 217.57 202.976 217.592 203.022C217.603 203.045 217.612 203.063 217.618 203.077C217.622 203.084 217.625 203.09 217.627 203.095C217.628 203.098 217.63 203.1 217.63 203.102C217.631 203.102 217.631 203.103 217.632 203.104C217.632 203.104 217.632 203.105 217.632 203.105C217.633 203.106 217.633 203.106 218.551 202.637C219.469 202.168 219.469 202.169 219.47 202.169C219.47 202.169 219.47 202.17 219.47 202.17C219.47 202.17 219.471 202.171 219.471 202.171C219.471 202.172 219.471 202.172 219.471 202.172C219.472 202.173 219.471 202.172 219.47 202.17C219.469 202.167 219.465 202.159 219.46 202.148C219.449 202.125 219.431 202.087 219.409 202.034C219.365 201.929 219.303 201.768 219.239 201.564C219.11 201.152 218.98 200.582 218.969 199.938C218.948 198.697 219.355 197.126 221.268 195.802L220.095 194.106Z" fill="black"/>
  <path d="M335.954 235.183V235.183C333.264 246.098 334.364 257.603 339.072 267.81L339.576 268.903" stroke="black" stroke-width="2.06208"/>
  <path d="M325.301 236.891V236.891C322.612 247.805 323.711 259.31 328.42 269.518L328.924 270.61" stroke="black" stroke-width="2.06208"/>
  <path d="M374.947 214.802L378.783 224.619" stroke="black" stroke-width="2.06208" stroke-linecap="round"/>
  <path d="M278.959 222.591V222.591C276.285 227.101 272.763 231.05 268.586 234.219L267.879 234.756" stroke="black" stroke-width="2.06208"/>
  <path d="M286.841 229.848L280.875 236.784" stroke="black" stroke-width="2.06208"/>
  <path d="M397.463 357.683C397.463 361.021 395.513 364.35 391.645 367.519C387.785 370.681 382.136 373.575 375.065 376.025C360.933 380.922 341.343 383.969 319.656 383.969C297.969 383.969 278.379 380.922 264.247 376.025C257.176 373.575 251.528 370.681 247.667 367.519C243.799 364.35 241.849 361.021 241.849 357.683C241.849 354.346 243.799 351.016 247.667 347.848C251.528 344.685 257.176 341.791 264.247 339.341C278.379 334.445 297.969 331.397 319.656 331.397C341.343 331.397 360.933 334.445 375.065 339.341C382.136 341.791 387.785 344.685 391.645 347.848C395.513 351.016 397.463 354.346 397.463 357.683Z" stroke="black" stroke-width="2.06208"/>
  <path d="M265.002 342.638L269.157 347.866V361.952L243.162 357.363L244.547 350.961L252.324 341.464L260.208 337.089L265.002 342.638Z" fill="white"/>
  <path d="M372.258 353.707L371.84 347.037L379.956 334.954L393.788 350.64L393.788 358.61L381.983 361.938L373.018 361.005L372.258 353.707Z" fill="white"/>
  <path d="M378.925 334.634C378.925 336.917 377.518 339.261 374.577 341.546C371.649 343.82 367.348 345.913 361.942 347.689C351.14 351.238 336.152 353.451 319.549 353.451C302.947 353.451 287.959 351.238 277.157 347.689C271.751 345.913 267.45 343.82 264.522 341.546C261.581 339.261 260.174 336.917 260.174 334.634C260.174 332.352 261.581 330.007 264.522 327.723C267.45 325.449 271.751 323.356 277.157 321.579C287.959 318.03 302.947 315.818 319.549 315.818C336.152 315.818 351.14 318.03 361.942 321.579C367.348 323.356 371.649 325.449 374.577 327.723C377.518 330.007 378.925 332.352 378.925 334.634Z" stroke="black" stroke-width="2.06208"/>
  <path d="M243.482 352.028L261.274 331.006" stroke="black" stroke-width="2.06208"/>
  <path d="M377.294 330.153L394.553 350.321" stroke="black" stroke-width="2.06208"/>
  <path d="M261.399 329.924C259.587 333.191 259.839 336.969 261.968 339.975C263.022 340.115 264.58 339.248 265.373 338.807L265.378 338.805C266.166 338.366 267.138 338.05 268.026 337.997C268.78 337.953 269.587 337.305 270.444 337.305C272.136 337.305 273.728 336.245 275.395 336.152C277.102 336.057 278.741 335.229 280.462 335.229C281.943 335.229 283.308 334.609 284.722 334.294C285.528 334.115 286.546 333.845 287.37 333.845C288.109 333.845 288.737 333.384 289.443 333.384C291.213 333.384 292.931 332.923 294.625 332.923C296.248 332.923 298.033 332.462 299.691 332.462C301.391 332.462 303.053 332 304.642 332C308.112 332 311.404 331.308 314.89 331.308C315.722 331.308 316.643 331.078 317.539 331.078C318.169 331.078 319.261 331.689 319.841 330.962C320.805 329.756 323.71 331.009 324.396 329.463C325.904 326.065 326.059 322.324 326.059 318.622V318.611C326.059 318.02 326.059 316.277 325.253 316.098C324.427 315.914 323.451 316.135 322.605 316.085C321.172 316 319.325 315.624 317.884 315.624C314.34 315.624 310.929 315.854 307.406 315.854C306.237 315.854 303.167 315.33 302.288 316.034C301.765 316.453 300.339 316.07 299.691 316.431C299.169 316.721 297.993 317.007 297.388 317.007C295.812 317.007 294.247 317.699 292.667 317.699C291.252 317.699 289.513 318.223 288.164 318.609C284.871 319.551 281.535 319.81 278.389 321.211C275.266 322.601 271.933 323.239 268.832 324.619C267.391 325.261 266.282 326.051 264.917 326.81C263.727 327.472 262.093 328.673 261.399 329.924Z" fill="black"/>
  <path d="M376.924 338.332C378.009 337.212 379.091 336.396 379.586 335.426C380.034 335.219 380.163 335.189 379.759 335.005C379.972 334.319 379.883 333.534 379.316 332.512C378.622 331.261 374.103 327.062 372.913 326.4C371.548 325.64 370.44 324.85 368.999 324.209C365.898 322.828 362.565 322.19 359.441 320.8C356.296 319.4 352.959 319.141 349.667 318.199C348.318 317.813 346.578 317.289 345.163 317.289C343.583 317.289 342.019 316.597 340.443 316.597C339.838 316.597 338.662 316.311 338.14 316.02C337.491 315.659 336.066 316.042 335.542 315.623C334.664 314.919 331.593 315.444 330.425 315.444C326.902 315.444 323.491 315.213 319.947 315.213C318.506 315.213 316.659 315.59 315.226 315.674C314.38 315.724 313.404 315.503 312.577 315.687C311.771 315.866 311.771 317.609 311.771 318.2V318.211C311.771 321.913 311.927 325.654 313.435 329.052C314.121 330.598 317.026 329.345 317.989 330.552C318.569 331.278 319.661 330.667 320.292 330.667C321.188 330.667 322.109 330.898 322.94 330.898C326.427 330.898 329.718 331.59 333.188 331.59C334.778 331.59 336.439 332.051 338.14 332.051C339.798 332.051 341.582 332.512 343.206 332.512C344.9 332.512 346.618 332.974 348.388 332.974C349.093 332.974 349.721 333.435 350.46 333.435C351.285 333.435 352.303 333.704 353.108 333.883C354.523 334.198 355.887 334.819 357.369 334.819C359.09 334.819 360.729 335.646 362.435 335.741C364.103 335.834 365.695 336.895 367.387 336.895C368.244 336.895 369.051 337.542 369.805 337.587C370.693 337.639 371.665 337.955 372.453 338.394L372.457 338.396C373.251 338.838 374.81 339.706 375.865 339.564C376.125 339.529 376.355 339.432 376.534 339.253C376.69 339.096 376.818 338.725 376.924 338.332Z" fill="black"/>
  <path d="M313.573 371.932H315.456V373.964H313.573V377.34H311.045V373.964H304.501L304.428 372.422L310.961 362.168H313.573V371.932ZM307.081 371.932H311.045V365.596L310.857 365.93L307.081 371.932Z" fill="black"/>
  <path d="M327.005 370.952C327.005 373.134 326.595 374.78 325.777 375.892C324.965 376.996 323.727 377.549 322.063 377.549C320.426 377.549 319.191 377.01 318.359 375.934C317.533 374.85 317.11 373.248 317.089 371.13V368.504C317.089 366.322 317.495 364.686 318.307 363.596C319.125 362.505 320.37 361.959 322.042 361.959C323.7 361.959 324.934 362.491 325.746 363.554C326.564 364.617 326.984 366.208 327.005 368.326V370.952ZM324.476 368.118C324.476 366.694 324.282 365.652 323.894 364.992C323.505 364.325 322.888 363.991 322.042 363.991C321.216 363.991 320.61 364.308 320.221 364.94C319.833 365.565 319.628 366.545 319.607 367.878V371.317C319.607 372.734 319.805 373.79 320.2 374.485C320.596 375.18 321.216 375.527 322.063 375.527C322.874 375.527 323.474 375.208 323.863 374.568C324.251 373.922 324.456 372.915 324.476 371.546V368.118Z" fill="black"/>
  <path d="M337.794 371.932H339.677V373.964H337.794V377.34H335.265V373.964H328.721L328.648 372.422L335.182 362.168H337.794V371.932ZM331.301 371.932H335.265V365.596L335.078 365.93L331.301 371.932Z" fill="black"/>
  <path d="M211.201 256.311L2.00023 256.311" stroke="black" stroke-width="2.06208" stroke-linecap="round"/>
  <path d="M642 256.311L432.799 256.311" stroke="black" stroke-width="2.06208" stroke-linecap="round"/>
  <ellipse cx="310.919" cy="338.475" rx="1.27845" ry="1.28049" fill="black"/>
  <ellipse cx="316.46" cy="342.744" rx="1.27845" ry="1.28049" fill="black"/>
  <ellipse cx="336.487" cy="340.183" rx="1.27845" ry="1.28049" fill="black"/>
</svg>
