<svg xmlns="http://www.w3.org/2000/svg" fill="none" viewBox="0 0 1016 1093">
  <path fill="#020202" d="M788 733.753c82 63 164 34 164 34s-124.293-69-148-150c0 0 22 11 40 0 0 0-88-94-92-216s123-386 92-401-212 199-212 199l-26-8s-83 61-84 200 101 176 139 211c49.981 46.036 45 68 127 131zM422 341.753c41.001 169-185.999 221-185.999 221s32.753-90 13.999-233c-18.754-143-134-314-92-314s222.999 157 264 326z"/>
  <path stroke="#000" stroke-linecap="round" stroke-width="8" d="M634 203.753s-44.5-16-78.5-24-87.187-52.396-81.5-27c3.159 14.106 14 27 14 27l-57-3"/>
  <ellipse cx="337" cy="375.253" fill="#fff" rx="43" ry="60.5"/>
  <ellipse cx="606" cy="382.253" fill="#fff" rx="43" ry="60.5"/>
  <path stroke="#000" stroke-linecap="round" stroke-width="8" d="M582 643.753c-17 1-32-14-32-14s-68 71-264 65c-116.575-3.568-166.644-41.804-188.081-72.207-13.138-18.633 2.567-39.159 25.19-41.981 58.874-7.343 165.481-25.939 214.391-67.812"/>
  <ellipse cx="327" cy="362.253" fill="#000" rx="21" ry="36.5" transform="rotate(14.258 327 362.253)"/>
  <ellipse cx="596" cy="369.253" fill="#000" rx="21" ry="36.5" transform="rotate(14.258 596 369.253)"/>
  <path stroke="#000" stroke-width="8" d="M210 685.753c-4 82-170 184-206 405.997M806 685.753c4 82 170 184 206 405.997M210 685.753c-4 82-170 184-206 405.997"/>
  <path stroke="#000" stroke-width="8" d="M198 727.753s130 118 316 122 306-104 306-104"/>
  <path stroke="#000" stroke-linecap="round" stroke-width="8" d="M178 793.753c94.596 30 286.213 206 286.213 206l55.787-150M864 793.753c-94.596 30-286.213 206-286.213 206l-55.787-150"/>
  <path fill="#000" d="M142 577.753l56-7s0 25-36 40-36 40-36 40l-34-35 5-20 12-12 33-6z"/>
</svg>
