<svg width="24" height="24" viewBox="0 0 24 24" fill="#B7B7B7" xmlns="http://www.w3.org/2000/svg">
    <path d="M12 0C5.37375 0 0 5.37375 0 12C0 18.6262 5.37375 24 12 24C18.6262 24 24 18.6262 24 12C24 5.37375 18.6262 0 12 0ZM17.4792 9.35625C17.4844 9.47438 17.4872 9.59297 17.4872 9.71203C17.4872 13.3514 14.7169 17.5486 9.65063 17.5486C8.09531 17.5486 6.64781 17.0925 5.42859 16.3116C5.64422 16.3369 5.86359 16.3495 6.08578 16.3495C7.37625 16.3495 8.56406 15.9094 9.50672 15.1706C8.30109 15.1481 7.28437 14.3522 6.93375 13.2577C7.10156 13.29 7.27453 13.3073 7.45125 13.3073C7.7025 13.3073 7.94625 13.2736 8.17781 13.2103C6.91734 12.9581 5.96812 11.8444 5.96812 10.5103C5.96812 10.4977 5.96812 10.4869 5.96859 10.4752C6.33984 10.6814 6.76406 10.8056 7.21594 10.8197C6.47625 10.3261 5.99016 9.48281 5.99016 8.52703C5.99016 8.02219 6.12656 7.54969 6.36328 7.14234C7.72172 8.80875 9.75141 9.90516 12.0408 10.02C11.9934 9.81844 11.9691 9.60797 11.9691 9.39188C11.9691 7.87125 13.2028 6.63797 14.7239 6.63797C15.5161 6.63797 16.2319 6.97266 16.7344 7.50844C17.362 7.38469 17.9513 7.15547 18.4833 6.84C18.2775 7.48266 17.8406 8.02219 17.272 8.36344C17.8294 8.29688 18.36 8.14922 18.8536 7.92984C18.4842 8.4825 18.0169 8.96766 17.4792 9.35625Z"/>
</svg>
