<svg width="151" height="30" viewBox="0 0 151 30" fill="none" xmlns="http://www.w3.org/2000/svg">
<g clip-path="url(#clip0)">
<path d="M84.4164 24.7921H77.1705C78.0319 23.7303 78.5893 21.4045 78.8427 17.9663C79.096 14.6292 79.248 10.1798 79.3494 4.31461H84.3657V24.7921H84.4164ZM86.3925 30H87.6592V24.7921H86.0885V3H77.9813C77.8799 9.42135 77.7786 14.5281 77.4746 17.9663C77.1705 21.2528 76.6132 23.8315 75.4478 24.7921H74.7891V29.9494H76.0558L76.2585 26.1067H86.1391L86.3925 30ZM94.2464 26.4607C97.0839 26.4607 99.2627 23.2753 99.2627 17.8652C99.2627 12.2528 97.0839 9.47191 94.2464 9.47191C91.4088 9.47191 89.23 12.6067 89.23 18.0674C89.23 23.6292 91.4088 26.4607 94.2464 26.4607ZM94.2464 25.2472C92.3209 25.2472 90.8008 23.073 90.8008 18.0169C90.8008 13.0618 92.3716 10.7865 94.2464 10.7865C96.1718 10.7865 97.6919 12.9101 97.6919 18.0169C97.6919 22.9213 96.1718 25.2472 94.2464 25.2472ZM103.57 17.7135L109.245 26.1573H110.917L105.14 17.4101L110.511 9.82584H109.042L103.57 17.5112V9.82584H102.05V26.1573H103.57V17.7135ZM115.984 25.2472C114.413 25.2472 113.4 23.9326 113.4 21.6067C113.4 18.7753 114.717 17.5112 117.403 17.5112H119.176V22.0112C118.568 23.7809 117.504 25.2472 115.984 25.2472ZM119.632 26.1573H121.051C120.848 25.5506 120.696 24.2865 120.696 23.1236V14.2247C120.696 10.9888 119.176 9.52247 116.49 9.52247C114.666 9.52247 113.298 10.3315 112.64 11.191L112.994 12.6067C113.754 11.4944 115.021 10.8371 116.44 10.8371C118.213 10.8371 119.176 11.8989 119.176 14.3764V16.3989H117.403C113.856 16.3989 111.93 18.2191 111.93 21.7079C111.93 24.691 113.45 26.4101 115.68 26.4101C117.301 26.4101 118.467 25.4494 119.227 23.882C119.328 25.0955 119.48 25.7022 119.632 26.1573Z" fill="black"/>
</g>
<path fill-rule="evenodd" clip-rule="evenodd" d="M128 7.975V0H130.871C132.356 0 133.676 0.385 133.676 1.969C133.676 2.728 133.357 3.41 132.796 3.729C133.555 4.048 134.006 4.642 134.006 5.621C134.006 7.315 132.741 7.975 131.146 7.975H128ZM129.122 4.301V7.029H131.157C132.301 7.029 132.851 6.545 132.851 5.632C132.851 4.697 132.29 4.301 131.091 4.301H129.122ZM129.122 0.946V3.41H131.047C131.971 3.41 132.543 3.058 132.543 2.123C132.543 1.298 131.938 0.946 131.047 0.946H129.122ZM140.573 5.346H136.019C136.052 6.622 136.976 7.238 137.845 7.238C138.725 7.238 139.209 6.842 139.462 6.259H140.496C140.232 7.271 139.286 8.118 137.845 8.118C135.975 8.118 134.941 6.776 134.941 5.027C134.941 3.146 136.195 1.958 137.812 1.958C139.627 1.958 140.694 3.465 140.573 5.346ZM137.812 2.816C136.932 2.816 136.118 3.3 136.03 4.488H139.517C139.484 3.652 138.879 2.816 137.812 2.816ZM142.025 2.057V0.572H143.026V2.057H144.148V2.86H143.026V6.369C143.026 6.985 143.07 7.139 143.642 7.139H144.148V7.975H143.422C142.289 7.975 142.025 7.722 142.025 6.49V2.86H141.09V2.057H142.025ZM149.043 5.5V5.126C147.228 5.302 146.073 5.577 146.073 6.391C146.073 6.952 146.502 7.326 147.217 7.326C148.152 7.326 149.043 6.897 149.043 5.5ZM146.997 8.118C145.886 8.118 144.962 7.502 144.962 6.413C144.962 5.016 146.546 4.598 148.966 4.334V4.191C148.966 3.102 148.372 2.75 147.624 2.75C146.788 2.75 146.315 3.19 146.271 3.927H145.237C145.325 2.651 146.469 1.936 147.613 1.936C149.252 1.936 149.978 2.706 149.967 4.378L149.956 5.742C149.945 6.743 149.989 7.414 150.11 7.975H149.098C149.055 7.70558 149.029 7.4337 149.021 7.161C148.658 7.777 148.053 8.118 146.997 8.118Z" fill="black"/>
<defs>
<clipPath id="clip0">
<rect width="121" height="27" fill="white" transform="translate(0 3)"/>
</clipPath>
</defs>
</svg>
