<svg xmlns="http://www.w3.org/2000/svg" fill="none" viewBox="0 0 490 154">
    <path fill="#000" d="M71.555 153.82l.632-32.062h-7.664V26.625H21.914l-1.758 36.914a312.88 312.88 0 01-.633 11.672 253.592 253.592 0 01-.914 11.11c-.422 3.75-.937 7.312-1.547 10.687-.609 3.375-1.359 6.469-2.25 9.281-1.124 3.75-2.484 6.938-4.078 9.563-1.546 2.578-3.375 4.546-5.484 5.906H.82l.985 32.133h7.242V129H63.89v24.82h7.664zM28.594 63.54l1.195-29.673h26.508v87.891H16.71c1.64-2.203 3.07-4.875 4.289-8.016 1.219-3.187 2.273-6.656 3.164-10.406a121.69 121.69 0 002.11-11.18 209.445 209.445 0 001.335-11.883c.282-3.14.493-6.14.633-9 .14-2.906.258-5.484.352-7.734zm52.532 26.296v2.25c0 5.203.773 10.125 2.32 14.766 1.547 4.64 3.773 8.695 6.68 12.164 2.906 3.515 6.468 6.304 10.687 8.367 4.219 2.015 9 3.023 14.344 3.023 5.297 0 10.031-1.031 14.203-3.094 4.219-2.062 7.758-4.828 10.617-8.296 2.906-3.516 5.133-7.571 6.68-12.164 1.547-4.641 2.32-9.563 2.32-14.766v-2.25c0-5.203-.773-10.125-2.32-14.766-1.547-4.64-3.774-8.695-6.68-12.164-2.906-3.515-6.469-6.281-10.687-8.297-4.172-2.062-8.93-3.093-14.274-3.093-5.343 0-10.101 1.03-14.273 3.093-4.172 2.063-7.711 4.828-10.617 8.297-2.907 3.516-5.133 7.594-6.68 12.235-1.547 4.64-2.32 9.539-2.32 14.695zm8.367 2.25v-2.25c.047-3.984.61-7.852 1.687-11.602 1.125-3.75 2.766-7.054 4.922-9.914a24.593 24.593 0 017.946-6.96c3.187-1.735 6.843-2.602 10.968-2.602s7.758.867 10.899 2.601a24.36 24.36 0 018.015 6.961c2.157 2.86 3.797 6.164 4.922 9.914a41.893 41.893 0 011.758 11.602v2.25c-.047 4.031-.633 7.922-1.758 11.672-1.078 3.75-2.695 7.078-4.851 9.984a24.952 24.952 0 01-7.946 6.891c-3.14 1.734-6.773 2.601-10.898 2.601-4.172 0-7.852-.867-11.039-2.601-3.188-1.735-5.86-4.031-8.016-6.891-2.156-2.906-3.797-6.234-4.922-9.984-1.078-3.75-1.64-7.64-1.687-11.672zm96.969 2.11L220.001 129h11.25l-37.476-39.164 33.82-36.914h-10.828l-30.516 33.68h-13.64v-33.68h-8.508V129h8.508V94.195h13.851zM293.416 129h9v-.914a76.446 76.446 0 01-1.688-7.313 55.295 55.295 0 01-.703-7.734V76.266c-.047-4.125-.82-7.735-2.32-10.829-1.5-3.093-3.562-5.671-6.187-7.734-2.625-2.062-5.696-3.61-9.211-4.64-3.516-1.032-7.289-1.547-11.321-1.547-4.031 0-7.828.562-11.39 1.687-3.516 1.125-6.61 2.672-9.282 4.64-2.671 2.016-4.804 4.384-6.398 7.102-1.594 2.72-2.461 5.696-2.602 8.93l8.438.07c.094-2.39.726-4.523 1.898-6.398 1.172-1.922 2.719-3.54 4.641-4.852 1.875-1.312 4.055-2.32 6.539-3.023 2.484-.703 5.086-1.055 7.805-1.055 2.953 0 5.695.399 8.226 1.196 2.578.75 4.805 1.851 6.68 3.304 1.875 1.453 3.352 3.281 4.43 5.485 1.078 2.156 1.64 4.664 1.687 7.523v8.578h-16.523c-4.735 0-9.258.445-13.571 1.336-4.312.844-8.109 2.227-11.39 4.148-3.235 1.922-5.836 4.43-7.805 7.524-1.922 3.047-2.883 6.75-2.883 11.109 0 3.235.657 6.188 1.969 8.86a20.589 20.589 0 005.344 6.82c2.25 1.828 4.922 3.281 8.015 4.359 3.094 1.032 6.399 1.547 9.914 1.547 2.813 0 5.508-.304 8.086-.914a34.135 34.135 0 007.383-2.461 32.776 32.776 0 006.399-4.008 30.26 30.26 0 005.132-5.273c.094 1.969.258 3.914.493 5.836a36.637 36.637 0 001.195 5.414zm-27.703-6.117c-2.485 0-4.805-.352-6.961-1.055-2.156-.703-4.031-1.687-5.625-2.953a13.675 13.675 0 01-3.867-4.641c-.891-1.875-1.336-3.937-1.336-6.187-.047-2.813.562-5.203 1.828-7.172 1.266-2.016 2.976-3.703 5.133-5.063 2.578-1.64 5.742-2.789 9.492-3.445 3.797-.703 7.781-1.078 11.953-1.125h15.328v16.664a24.935 24.935 0 01-4.219 6.188 26.798 26.798 0 01-5.976 4.711c-2.25 1.312-4.711 2.32-7.383 3.023-2.672.703-5.461 1.055-8.367 1.055zM320.031 46.438l.797-3.704c-.781.032-1.422-.172-1.922-.609-.484-.422-.867-.984-1.148-1.688a9.543 9.543 0 01-.586-2.367 23.48 23.48 0 01-.141-2.554v-3.82c0-1.86-.453-3.5-1.359-4.923-.906-1.421-2.328-2.507-4.266-3.257 1.922-.75 3.336-1.844 4.242-3.282.922-1.437 1.383-3.086 1.383-4.945v-3.82c0-.844.016-1.696.047-2.555.047-.875.188-1.664.422-2.367.234-.703.609-1.266 1.125-1.688.516-.437 1.25-.64 2.203-.609l-.797-3.68c-1.515 0-2.82.29-3.914.868-1.094.578-1.976 1.32-2.648 2.226-.813 1.047-1.407 2.281-1.781 3.703a15.847 15.847 0 00-.563 4.102v3.82c0 2.11-.484 3.617-1.453 4.524-.969.906-2.445 1.359-4.43 1.359v4.687c1.985 0 3.461.453 4.43 1.36.969.906 1.453 2.398 1.453 4.476v3.82c0 1.235.164 2.493.492 3.774a11.229 11.229 0 001.641 3.563A8.604 8.604 0 00316 45.406c1.141.688 2.484 1.032 4.031 1.032zM334.652 38h12.445c1.875 0 3.562-.21 5.062-.633 1.5-.422 2.774-1.054 3.821-1.898a8.404 8.404 0 002.414-3.14c.562-1.25.843-2.696.843-4.337 0-.86-.117-1.687-.351-2.484a7.385 7.385 0 00-1.031-2.25 7.206 7.206 0 00-1.688-1.688c-.656-.484-1.547-.883-2.672-1.195v-.023a7.805 7.805 0 001.571-.797 7.79 7.79 0 001.289-1.032 6.72 6.72 0 001.547-2.39 8.364 8.364 0 00.562-2.93c0-1.594-.297-2.976-.891-4.148a7.686 7.686 0 00-2.484-2.907c-1.078-.765-2.383-1.335-3.914-1.71-1.516-.375-3.203-.563-5.063-.563h-11.46V38zm6.609-15.047h6.141c.921.016 1.718.14 2.39.375.672.235 1.219.57 1.641 1.008.422.422.726.937.914 1.547.203.61.305 1.297.305 2.062 0 .735-.133 1.399-.399 1.992a4 4 0 01-1.125 1.524c-.453.375-1.023.672-1.711.89-.672.22-1.437.329-2.297.329h-5.859v-9.727zm0-4.758V9.242h4.875c1.062.016 1.984.133 2.766.352.796.219 1.429.57 1.898 1.054.359.344.625.774.797 1.29.187.515.281 1.117.281 1.804 0 .656-.109 1.242-.328 1.758-.203.516-.5.953-.891 1.313-.468.453-1.086.796-1.851 1.03-.766.22-1.649.337-2.649.352h-4.898zm48.066 4.852v-5.203h-14.016V9.242h16.312V3.875h-22.921V38h22.992v-5.32h-16.383v-9.633h14.016zm37.706-13.805V3.875h-27.516v5.367H409.9V38h6.609V9.242h10.524zm25.331 21.633L454.356 38h6.938L450.325 3.875h-5.977L433.169 38h6.937l2.016-7.125h10.242zm-8.625-5.602l3.586-12.562 3.492 12.562h-7.078zm30.183 17.461l.797 3.703c1.547 0 2.883-.335 4.008-1.007a8.033 8.033 0 002.765-2.602c.703-1.031 1.235-2.203 1.594-3.516.359-1.312.539-2.578.539-3.796v-3.82c0-.735.055-1.391.164-1.97.125-.593.305-1.109.539-1.546a3.82 3.82 0 011.945-1.758c.86-.375 1.938-.563 3.235-.563v-4.687c-1.156 0-2.149-.149-2.977-.445-.812-.297-1.445-.766-1.898-1.407-.344-.468-.602-1.039-.774-1.71-.156-.672-.234-1.446-.234-2.32v-3.821c0-1.188-.148-2.414-.445-3.68a10.114 10.114 0 00-1.453-3.469 8.15 8.15 0 00-2.789-2.718C477.797.914 476.391.57 474.719.57l-.797 3.68c.953-.031 1.687.172 2.203.61.516.421.891.984 1.125 1.687.234.703.367 1.492.398 2.367.047.86.071 1.711.071 2.555v3.82c0 1.078.148 2.102.445 3.07.297.953.758 1.82 1.383 2.602a8.296 8.296 0 001.5 1.453 9.048 9.048 0 001.992 1.125c-.922.39-1.719.867-2.391 1.43a7.773 7.773 0 00-1.64 1.875 8.417 8.417 0 00-.985 2.273 10.603 10.603 0 00-.304 2.578v3.82c0 .844-.055 1.696-.164 2.555a9.588 9.588 0 01-.586 2.367c-.281.704-.672 1.266-1.172 1.688-.485.438-1.109.64-1.875.61z"/>
</svg>
