<svg xmlns="http://www.w3.org/2000/svg" fill="none" viewBox="0 0 64 64">
  <rect width="64" height="64" fill="#000" rx="14"/>
  <path fill="#fff" d="M35.553 32.5c0 9.113 5.025 16.5 11.224 16.5C52.974 49 58 41.613 58 32.5S52.975 16 46.776 16c-6.198 0-11.223 7.387-11.223 16.5z"/>
  <path fill="#000" d="M38.834 37.264c1.296 5.329 4.725 9.017 7.66 8.238 2.933-.78 4.261-5.73 2.965-11.059-1.296-5.328-4.724-9.016-7.658-8.237-2.934.779-4.262 5.73-2.967 11.058z"/>
  <path fill="#fff" d="M6 32.5C6 41.613 11.025 49 17.224 49c6.198 0 11.223-7.387 11.223-16.5S23.422 16 17.224 16C11.024 16 6 23.387 6 32.5z"/>
  <path fill="#000" d="M9.282 37.264c1.295 5.329 4.724 9.017 7.658 8.238 2.934-.78 4.262-5.73 2.966-11.059-1.296-5.328-4.724-9.016-7.658-8.237-2.934.779-4.262 5.73-2.966 11.058z"/>
</svg>
