<svg version="1" xmlns="http://www.w3.org/2000/svg" width="933.333" height="933.333" viewBox="0 0 700.000000 700.000000"><path d="M131.8 1.5C82.6 8.2 39.7 38.8 17.1 83.1c-6.6 13-12.2 29.3-14.8 43.1C.6 134.9.5 149.6.5 350 .5 591-.1 570.8 8 595.3c15.4 46.3 50.8 81.6 97.1 96.8 24.5 8 4.2 7.4 244.9 7.4 240.7 0 220.4.6 244.9-7.4 46.3-15.2 81.7-50.6 97.1-97 8.1-24.3 7.5-4.3 7.5-245.1 0-241 .6-220.8-7.5-245.3C673.4 48.9 625.5 9.2 567.3 1.5c-15.3-2.1-420.5-2-435.5 0zm71.4 175c51.7 9 93.7 65.5 105.3 141.5 2.3 14.8 3 44.9 1.6 60.5-4.9 52-23.3 96.2-52.3 125.4-55 55.6-128.9 37-168.6-42.4-9.6-19.3-17-43.2-20.9-67.5-2.6-16.5-2.6-60.6.1-77 14.6-92 71.7-151.5 134.8-140.5zm330.7 1.5c42.7 12 77.7 55.3 92.6 114.5 5.9 23.3 7 32.9 7 63 0 30.2-1.1 40-7 63-4.3 16.6-7.3 25.1-14.5 40.2-26 54.7-70.6 84.2-114.8 75.8-53.2-10.1-93.9-64.8-105.9-142.5-2.5-16.2-2.5-56.8 0-73 9.8-63.1 38.4-111.6 78.7-133.3 7.8-4.2 20-8.4 27.8-9.7 9-1.4 27.6-.4 36.1 2z"/><path d="M133 286.9c-30.7 10-44.7 60.3-32.3 116.1 11.1 50.2 39.2 88.8 68.9 95 15.7 3.3 31.5-5.2 41.3-22.3 7.4-13 12.1-34.2 12.1-54.9 0-56.4-28-114.7-63-131.2-5.5-2.6-7.9-3.1-15.5-3.3-4.9-.1-10.1.1-11.5.6zM454.9 287.4c-5.9 2.1-10.4 5.3-16.1 11.5-23.7 25.6-25.8 86.4-4.7 137.1 13.5 32.4 35.3 56.1 56.9 61.6 26.3 6.7 48.5-16.9 54-57.3 2-14.2.8-40.7-2.4-56.1-10.1-47.8-35.9-86.6-64-96.4-6.1-2.1-18.4-2.3-23.7-.4z"/></svg>