<svg width="22" height="16" viewBox="0 0 22 16" fill="none" xmlns="http://www.w3.org/2000/svg">
<path d="M7.44045 15.7805L0.222473 8.65854C0.0741573 8.53659 -3.63551e-07 8.31707 -3.55022e-07 8.12195C-3.53956e-07 8.09756 -3.53956e-07 8.09756 -3.5289e-07 8.07317C-3.51823e-07 8.04878 -3.51823e-07 8.04878 -3.50757e-07 8.02439C-3.49691e-07 8 -3.48625e-07 7.97561 -3.48625e-07 7.97561C-3.47559e-07 7.95122 -3.46493e-07 7.92683 -3.45427e-07 7.90244C-3.36898e-07 7.70732 0.0741574 7.5122 0.222473 7.34146L7.44045 0.219512C7.73708 -0.0731714 8.25618 -0.0731713 8.55281 0.219512C8.84944 0.512195 8.84944 1.02439 8.55281 1.31707L2.54607 7.2439L21.209 7.2439C21.6539 7.2439 22 7.58537 22 8.02439C22 8.46342 21.6539 8.80488 21.209 8.80488L2.5955 8.80488L8.55281 14.6829C8.84944 14.9756 8.84944 15.4878 8.55281 15.7805C8.25618 16.0732 7.73708 16.0732 7.44045 15.7805Z" fill="black"/>
</svg>
